<svg width="18" height="18" viewBox="0 0 18 18" fill="none" xmlns="http://www.w3.org/2000/svg">
<path d="M5.8499 10.8004C5.73055 10.8004 5.6161 10.753 5.5317 10.6686C5.44731 10.5842 5.3999 10.4697 5.3999 10.3504C5.3999 10.231 5.44731 10.1166 5.5317 10.0322C5.6161 9.9478 5.73055 9.90039 5.8499 9.90039H12.1499C12.2692 9.90039 12.3837 9.9478 12.4681 10.0322C12.5525 10.1166 12.5999 10.231 12.5999 10.3504C12.5999 10.4697 12.5525 10.5842 12.4681 10.6686C12.3837 10.753 12.2692 10.8004 12.1499 10.8004H5.8499ZM5.8499 13.5004C5.73055 13.5004 5.6161 13.453 5.5317 13.3686C5.44731 13.2842 5.3999 13.1697 5.3999 13.0504C5.3999 12.931 5.44731 12.8166 5.5317 12.7322C5.6161 12.6478 5.73055 12.6004 5.8499 12.6004H12.1499C12.2692 12.6004 12.3837 12.6478 12.4681 12.7322C12.5525 12.8166 12.5999 12.931 12.5999 13.0504C12.5999 13.1697 12.5525 13.2842 12.4681 13.3686C12.3837 13.453 12.2692 13.5004 12.1499 13.5004H5.8499Z" fill="#096CF0"/>
<path fill-rule="evenodd" clip-rule="evenodd" d="M10.0665 0.900391H4.04995C3.69191 0.900391 3.34853 1.04262 3.09536 1.2958C2.84218 1.54897 2.69995 1.89235 2.69995 2.25039V15.7504C2.69995 16.1084 2.84218 16.4518 3.09536 16.705C3.34853 16.9582 3.69191 17.1004 4.04995 17.1004H13.95C14.308 17.1004 14.6514 16.9582 14.9045 16.705C15.1577 16.4518 15.3 16.1084 15.3 15.7504V6.48219C15.2999 6.14422 15.173 5.81857 14.9445 5.56959L11.0619 1.33779C10.9353 1.19986 10.7815 1.08975 10.6101 1.01445C10.4388 0.939153 10.2536 0.90031 10.0665 0.900391ZM3.59995 2.25039C3.59995 2.13104 3.64736 2.01658 3.73175 1.93219C3.81614 1.8478 3.9306 1.80039 4.04995 1.80039H10.0665C10.1289 1.80032 10.1907 1.81325 10.2478 1.83835C10.305 1.86345 10.3563 1.90018 10.3986 1.94619L14.2812 6.17799C14.3574 6.26094 14.3998 6.36949 14.4 6.48219V15.7504C14.4 15.8697 14.3525 15.9842 14.2682 16.0686C14.1838 16.153 14.0693 16.2004 13.95 16.2004H4.04995C3.9306 16.2004 3.81614 16.153 3.73175 16.0686C3.64736 15.9842 3.59995 15.8697 3.59995 15.7504V2.25039Z" fill="#096CF0"/>
<path d="M9.9 6.30039H14.85C14.9693 6.30039 15.0838 6.3478 15.1682 6.43219C15.2526 6.51658 15.3 6.63104 15.3 6.75039C15.3 6.86974 15.2526 6.9842 15.1682 7.06859C15.0838 7.15298 14.9693 7.20039 14.85 7.20039H9.45C9.33065 7.20039 9.21619 7.15298 9.1318 7.06859C9.04741 6.9842 9 6.86974 9 6.75039V1.35039C9 1.23104 9.04741 1.11658 9.1318 1.03219C9.21619 0.947801 9.33065 0.900391 9.45 0.900391C9.56935 0.900391 9.68381 0.947801 9.7682 1.03219C9.85259 1.11658 9.9 1.23104 9.9 1.35039V6.30039Z" fill="#096CF0"/>
</svg>
